<svg width="83" height="83" viewBox="0 0 83 83" fill="none" xmlns="http://www.w3.org/2000/svg">
<rect y="0.256592" width="82.051" height="82.051" rx="12" fill="#20DF7F"/>
<path fill-rule="evenodd" clip-rule="evenodd" d="M39.0435 41.294L39.0461 41.8993C39.0669 44.3001 39.2116 46.4422 39.4612 47.7996C39.4612 47.8241 39.7335 49.1704 39.9069 49.6185C40.1792 50.2663 40.6715 50.8161 41.2887 51.1644C41.7829 51.413 42.3013 51.5391 42.8439 51.5391C43.2705 51.5194 43.974 51.3047 44.4761 51.1247L44.8933 50.9648C47.6569 49.8671 52.9398 46.2801 54.9631 44.0864L55.1122 43.9331L55.778 43.2146C56.1976 42.6648 56.4195 41.9926 56.4195 41.2696C56.4195 40.6218 56.2218 39.9741 55.8265 39.4506C55.7081 39.2811 55.5175 39.0635 55.3478 38.8797L54.6998 38.2014C52.47 35.9421 47.642 32.7731 45.1395 31.7231C45.1395 31.7005 43.5842 31.0508 42.8439 31.0264H42.7451C41.6094 31.0264 40.5484 31.6741 40.0057 32.721C39.8575 33.0072 39.7153 33.5679 39.6071 34.0603L39.4127 34.99C39.1908 36.485 39.0435 38.7784 39.0435 41.294ZM28.22 38.6873C26.8009 38.6873 25.6503 39.8491 25.6503 41.282C25.6503 42.7149 26.8009 43.8767 28.22 43.8767L34.5434 43.3175C35.6567 43.3175 36.5593 42.408 36.5593 41.282C36.5593 40.1579 35.6567 39.2465 34.5434 39.2465L28.22 38.6873Z" fill="white"/>
</svg>
