<svg width="83" height="83" viewBox="0 0 83 83" fill="none" xmlns="http://www.w3.org/2000/svg">
<rect opacity="0.1" y="0.154053" width="82.051" height="82.051" rx="12" fill="white"/>
<path fill-rule="evenodd" clip-rule="evenodd" d="M50.8889 34.9928H58.1215C58.1215 29.1857 54.6419 25.7932 48.7464 25.7932L33.3087 25.7932C27.4132 25.7932 23.9336 29.1857 23.9336 34.9188V47.4368C23.9336 53.1699 27.4132 56.5623 33.3087 56.5623L48.7464 56.5623C54.6419 56.5623 58.1215 53.1699 58.1215 47.4368V46.9035H50.8889C47.5322 46.9035 44.811 44.2505 44.811 40.9778C44.811 37.7051 47.5322 35.0521 50.8889 35.0521V34.9928ZM50.8857 37.541H56.842C57.5469 37.541 58.1183 38.0981 58.1183 38.7854V43.1111C58.1101 43.795 57.5435 44.3475 56.842 44.3555H51.0224C49.3231 44.3778 47.8371 43.2434 47.4517 41.6297C47.2587 40.6279 47.5296 39.5942 48.192 38.8056C48.8543 38.0169 49.8403 37.5541 50.8857 37.541ZM51.1516 42.0891H51.7138C52.4355 42.0891 53.0205 41.5187 53.0205 40.8151C53.0205 40.1115 52.4355 39.5411 51.7138 39.5411H51.1516C50.8064 39.5371 50.474 39.668 50.2285 39.9046C49.983 40.1412 49.8448 40.4637 49.8449 40.8003C49.8448 41.5063 50.4275 42.081 51.1516 42.0891ZM32.0349 34.9938L41.6835 34.9938C42.4052 34.9938 42.9902 34.4234 42.9902 33.7198C42.9902 33.0162 42.4052 32.4458 41.6835 32.4458H32.0349C31.3191 32.4457 30.7365 33.0071 30.7281 33.705C30.7281 34.411 31.3107 34.9857 32.0349 34.9938Z" fill="#808191"/>
</svg>
