<svg width="83" height="83" viewBox="0 0 83 83" fill="none" xmlns="http://www.w3.org/2000/svg">
<rect opacity="0.1" y="0.743408" width="82.051" height="82.051" rx="12" fill="#808191"/>
<path d="M36.1371 56.7671V51.5402C36.1371 50.206 37.2267 49.1243 38.5707 49.1243H43.4838C44.1293 49.1243 44.7482 49.3789 45.2046 49.8319C45.661 50.285 45.9174 50.8995 45.9174 51.5402V56.7671C45.9133 57.3218 46.1325 57.8552 46.5261 58.2489C46.9198 58.6426 47.4555 58.864 48.0143 58.8639H51.3662C52.9317 58.868 54.4345 58.2534 55.5429 57.1559C56.6513 56.0584 57.2742 54.5682 57.2742 53.0141V38.1236C57.2741 36.8682 56.7136 35.6774 55.7436 34.872L44.3409 25.8314C42.3574 24.2462 39.5155 24.2974 37.5912 25.9529L26.4487 34.872C25.4328 35.6537 24.8257 36.848 24.7957 38.1236V52.9989C24.7957 56.2381 27.4407 58.8639 30.7036 58.8639L33.979 58.8639C35.1396 58.864 36.0828 57.9344 36.0912 56.7823L36.1371 56.7671Z" fill="#808191"/>
</svg>
