<svg width="83" height="83" viewBox="0 0 83 83" fill="none" xmlns="http://www.w3.org/2000/svg">
<rect opacity="0.1" y="0.256592" width="82.051" height="82.051" rx="12" fill="white"/>
<path fill-rule="evenodd" clip-rule="evenodd" d="M39.0434 41.294L39.0461 41.8993C39.0668 44.3001 39.2116 46.4422 39.4612 47.7996C39.4612 47.8241 39.7334 49.1704 39.9068 49.6185C40.1791 50.2663 40.6714 50.8161 41.2886 51.1644C41.7828 51.413 42.3012 51.5391 42.8439 51.5391C43.2704 51.5194 43.9739 51.3047 44.476 51.1247L44.8932 50.9648C47.6568 49.8671 52.9397 46.2801 54.963 44.0864L55.1122 43.9331L55.7779 43.2146C56.1975 42.6648 56.4194 41.9926 56.4194 41.2696C56.4194 40.6218 56.2217 39.9741 55.8264 39.4506C55.7081 39.2811 55.5174 39.0635 55.3477 38.8797L54.6998 38.2014C52.4699 35.9421 47.6419 32.7731 45.1394 31.7231C45.1394 31.7005 43.5842 31.0508 42.8439 31.0264H42.745C41.6094 31.0264 40.5483 31.6741 40.0057 32.721C39.8574 33.0072 39.7152 33.5679 39.6071 34.0603L39.4127 34.99C39.1908 36.485 39.0434 38.7784 39.0434 41.294ZM28.2199 38.6873C26.8008 38.6873 25.6503 39.8491 25.6503 41.282C25.6503 42.7149 26.8008 43.8767 28.2199 43.8767L34.5434 43.3175C35.6566 43.3175 36.5592 42.408 36.5592 41.282C36.5592 40.1579 35.6566 39.2465 34.5434 39.2465L28.2199 38.6873Z" fill="#808191"/>
</svg>
