<svg width="83" height="83" viewBox="0 0 83 83" fill="none" xmlns="http://www.w3.org/2000/svg">
<rect y="0.154053" width="82.051" height="82.051" rx="12" fill="#20DF7F"/>
<path fill-rule="evenodd" clip-rule="evenodd" d="M50.8889 34.993H58.1215C58.1215 29.1858 54.6419 25.7933 48.7464 25.7933L33.3087 25.7933C27.4132 25.7933 23.9336 29.1858 23.9336 34.9189V47.4369C23.9336 53.17 27.4132 56.5625 33.3087 56.5625L48.7464 56.5625C54.6419 56.5625 58.1215 53.17 58.1215 47.4369V46.9036H50.8889C47.5322 46.9036 44.811 44.2506 44.811 40.9779C44.811 37.7052 47.5322 35.0522 50.8889 35.0522V34.993ZM50.8857 37.5411H56.842C57.5469 37.5411 58.1183 38.0982 58.1183 38.7855V43.1112C58.1101 43.7951 57.5435 44.3476 56.842 44.3556H51.0224C49.3231 44.3779 47.8371 43.2436 47.4517 41.6298C47.2587 40.628 47.5296 39.5943 48.192 38.8057C48.8543 38.0171 49.8403 37.5542 50.8857 37.5411ZM51.1516 42.0892H51.7138C52.4355 42.0892 53.0205 41.5188 53.0205 40.8152C53.0205 40.1116 52.4355 39.5412 51.7138 39.5412H51.1516C50.8064 39.5372 50.474 39.6682 50.2285 39.9047C49.983 40.1413 49.8448 40.4639 49.8449 40.8004C49.8448 41.5065 50.4275 42.0811 51.1516 42.0892ZM32.0349 34.9939L41.6835 34.9939C42.4052 34.9939 42.9902 34.4235 42.9902 33.7199C42.9902 33.0163 42.4052 32.4459 41.6835 32.4459H32.0349C31.3191 32.4458 30.7365 33.0073 30.7281 33.7051C30.7281 34.4111 31.3107 34.9858 32.0349 34.9939Z" fill="white"/>
</svg>
