<svg width="1920" height="179" viewBox="0 0 1920 179" fill="none" xmlns="http://www.w3.org/2000/svg">
<path fill-rule="evenodd" clip-rule="evenodd" d="M0 0L79.5 6.72543C160.5 13.4509 319.5 26.9017 480 49.6647C640.5 72.9451 799.5 106.055 960 112.78C1120.5 119.506 1279.5 99.3295 1440 93.1214C1600.5 86.396 1759.5 93.1214 1840.5 96.2254L1920 99.3295V179H1840.5C1759.5 179 1600.5 179 1440 179C1279.5 179 1120.5 179 960 179C799.5 179 640.5 179 480 179C319.5 179 160.5 179 79.5 179H0V0Z" fill="#20DF7F" fill-opacity="0.09"/>
<path fill-rule="evenodd" clip-rule="evenodd" d="M0 71.6L64 85.92C128 100.24 256 128.88 384 121.72C512 114.56 640 71.6 768 42.96C896 14.32 1024 0 1152 0C1280 0 1408 14.32 1536 39.38C1664 64.44 1792 100.24 1856 118.14L1920 136.04V179H1856C1792 179 1664 179 1536 179C1408 179 1280 179 1152 179C1024 179 896 179 768 179C640 179 512 179 384 179C256 179 128 179 64 179H0V71.6Z" fill="#E5E5E5" fill-opacity="0.13"/>
</svg>
